<svg xmlns="http://www.w3.org/2000/svg" width="200" height="73.363" viewBox="0 0 200 73.363">
  <g id="Grupo_1" data-name="Grupo 1" transform="translate(-415.842 -196.016)">
    <path id="Trazado_1" data-name="Trazado 1" d="M502.368,236.271c1.461-12.454,11.824-22.55,23.148-22.55a17.2,17.2,0,0,1,12.425,5.138l.546-4.063h15.237l-5.74,42.665H532.748l.436-3.246a21.454,21.454,0,0,1-12.961,4.605c-11.323,0-19.316-10.1-17.856-22.55m15.523-.039a7.65,7.65,0,0,0,7.8,8.863,10.462,10.462,0,0,0,10.105-8.863,7.649,7.649,0,0,0-7.8-8.863,10.465,10.465,0,0,0-10.106,8.863m44.482-33.484H577.4l-1.448,12.475H584.6l-1.69,13.129h-8.473l-3.374,29.11H555.393l3.715-29.11H554.13l1.688-13.129h4.965Zm-95.2,54.714h15.859l2.34-19.594c3.192-15.239,16.71-8.257,16.71-8.257l2.107-15.006c-14.6,0-16.921,6.555-16.921,6.555l.639-6.363H472.448ZM438.548,209.1,436.9,223.487s12.436,2.569,13.774-6.372c1.5-10.027-12.129-8.016-12.129-8.016m-22.665,48.363,7.472-61.424h26.536s17.984-1.444,17.984,19.061-19.9,22.142-19.9,22.142H435.223l-2.477,20.221Z" transform="translate(-0.015)" fill="#243366"/>
    <path id="Trazado_2" data-name="Trazado 2" d="M418.812,302.406h-1.843l-1.127,7.091H419.9l.246-1.562h-2.21Z" transform="translate(0 -40.351)" fill="#243366"/>
    <path id="Trazado_3" data-name="Trazado 3" d="M428.831,303.813a1.647,1.647,0,0,1,1.709,1.872,2.47,2.47,0,0,1-2.34,2.113,1.7,1.7,0,0,1-1.671-2.113,2.419,2.419,0,0,1,2.3-1.872m.285-1.789a4.606,4.606,0,0,0-4.5,3.648,3.155,3.155,0,0,0,3.3,3.913,4.576,4.576,0,0,0,4.542-3.913,3.15,3.15,0,0,0-3.343-3.648" transform="translate(-3.305 -40.207)" fill="#243366"/>
    <path id="Trazado_4" data-name="Trazado 4" d="M444.228,302.683a4.311,4.311,0,0,0-2.125-.583,2.783,2.783,0,0,0-2.821,2.38c-.218,1.372.5,1.677,1.6,2,.376.115,1.073.294.99.809a.945.945,0,0,1-1.007.714,2.138,2.138,0,0,1-1.521-.733l-1.024,1.487a3.811,3.811,0,0,0,2.364.8,3.555,3.555,0,0,0,2.117-.664,2.874,2.874,0,0,0,1.038-1.909c.177-1.147-.5-1.648-1.443-1.94l-.446-.14c-.305-.1-.779-.262-.711-.676.06-.394.543-.593.883-.593a1.665,1.665,0,0,1,1.148.472Z" transform="translate(-8.526 -40.235)" fill="#243366"/>
    <path id="Trazado_5" data-name="Trazado 5" d="M454.422,309.5h1.834l1.235-4.08h.019l.984,4.08h.731l2.348-4.08h.019l-.129,4.08h1.844l.051-7.091h-1.836l-2.123,3.787-.837-3.787h-1.815Z" transform="translate(-14.632 -40.351)" fill="#243366"/>
    <path id="Trazado_6" data-name="Trazado 6" d="M474.814,306.854h-1.533l1.12-2.257h.019Zm.276,1.411.265,1.233h1.967l-1.548-7.091h-2.012L469.91,309.5h1.955l.689-1.233Z" transform="translate(-20.507 -40.352)" fill="#243366"/>
    <path id="Trazado_7" data-name="Trazado 7" d="M488.633,303.965l.247-1.559h-4.035l-1.124,7.091h4.034l.25-1.562h-2.192l.19-1.222h2.081l.247-1.563h-2.076l.185-1.186Z" transform="translate(-25.745 -40.351)" fill="#243366"/>
    <path id="Trazado_8" data-name="Trazado 8" d="M498.555,302.683a4.331,4.331,0,0,0-2.128-.583,2.791,2.791,0,0,0-2.826,2.38c-.215,1.372.5,1.677,1.607,2,.375.115,1.071.294.988.809a.943.943,0,0,1-1.007.714,2.127,2.127,0,0,1-1.516-.733l-1.027,1.487a3.814,3.814,0,0,0,2.364.8,3.552,3.552,0,0,0,2.118-.664,2.856,2.856,0,0,0,1.039-1.909c.181-1.147-.5-1.648-1.447-1.94l-.442-.14c-.3-.1-.777-.262-.715-.676.062-.394.544-.593.883-.593a1.658,1.658,0,0,1,1.148.472Z" transform="translate(-29.129 -40.235)" fill="#243366"/>
    <path id="Trazado_9" data-name="Trazado 9" d="M507.18,303.965H508.7l.245-1.559H504.06l-.247,1.559h1.52l-.87,5.532h1.844Z" transform="translate(-33.365 -40.351)" fill="#243366"/>
    <path id="Trazado_10" data-name="Trazado 10" d="M515.047,303.818h.178c.6,0,1.262.112,1.139.881s-.82.885-1.42.885h-.179Zm1.382,2.77a2.319,2.319,0,0,0,1.868-2c.242-1.513-.712-2.179-2.114-2.179h-2.758L512.3,309.5h1.845l.43-2.729h.022l1.307,2.729h2.3Z" transform="translate(-36.585 -40.351)" fill="#243366"/>
    <path id="Trazado_11" data-name="Trazado 11" d="M528.1,303.813a1.644,1.644,0,0,1,1.706,1.872,2.471,2.471,0,0,1-2.341,2.113,1.7,1.7,0,0,1-1.666-2.113,2.419,2.419,0,0,1,2.3-1.872m.282-1.789a4.6,4.6,0,0,0-4.5,3.648,3.155,3.155,0,0,0,3.305,3.913,4.569,4.569,0,0,0,4.537-3.913,3.15,3.15,0,0,0-3.343-3.648" transform="translate(-40.955 -40.207)" fill="#243366"/>
    <path id="Trazado_12" data-name="Trazado 12" d="M543.493,302.683a4.336,4.336,0,0,0-2.129-.583,2.781,2.781,0,0,0-2.82,2.38c-.217,1.372.5,1.677,1.6,2,.377.115,1.075.294.991.809a.944.944,0,0,1-1,.714,2.141,2.141,0,0,1-1.525-.733l-1.024,1.487a3.819,3.819,0,0,0,2.366.8,3.543,3.543,0,0,0,2.115-.664,2.843,2.843,0,0,0,1.037-1.909c.184-1.147-.5-1.648-1.442-1.94l-.447-.14c-.305-.1-.777-.262-.713-.676.065-.394.548-.593.884-.593a1.655,1.655,0,0,1,1.15.472Z" transform="translate(-46.174 -40.235)" fill="#243366"/>
    <path id="Trazado_13" data-name="Trazado 13" d="M557.084,303.965h.429a1.571,1.571,0,0,1,1.712,1.984,2.248,2.248,0,0,1-2.357,1.986h-.41Zm-2.717,5.532h2.612a4.339,4.339,0,0,0,4.164-3.548,2.962,2.962,0,0,0-3.038-3.543h-2.619Z" transform="translate(-52.539 -40.351)" fill="#243366"/>
    <path id="Trazado_14" data-name="Trazado 14" d="M571.617,303.965l.248-1.559h-4.033l-1.124,7.091h4.032l.25-1.562H568.8l.192-1.222h2.082l.243-1.563h-2.077l.189-1.186Z" transform="translate(-57.22 -40.351)" fill="#243366"/>
    <path id="Trazado_15" data-name="Trazado 15" d="M578.953,302.406h-1.845l-1.121,7.091h4.052l.25-1.562h-2.212Z" transform="translate(-60.739 -40.351)" fill="#243366"/>
    <path id="Trazado_16" data-name="Trazado 16" d="M590.571,309.5h1.844l.688-4.346h.021l2.686,4.346h1.845l1.123-7.091h-1.846l-.685,4.336h-.019l-2.689-4.336h-1.846Z" transform="translate(-66.271 -40.351)" fill="#243366"/>
    <path id="Trazado_17" data-name="Trazado 17" d="M609.409,303.813a1.647,1.647,0,0,1,1.712,1.872,2.472,2.472,0,0,1-2.337,2.113,1.694,1.694,0,0,1-1.671-2.113,2.408,2.408,0,0,1,2.3-1.872m.285-1.789a4.606,4.606,0,0,0-4.5,3.648,3.158,3.158,0,0,0,3.3,3.913,4.567,4.567,0,0,0,4.541-3.913,3.148,3.148,0,0,0-3.344-3.648" transform="translate(-71.795 -40.207)" fill="#243366"/>
    <path id="Trazado_18" data-name="Trazado 18" d="M622,303.818h.181c.6,0,1.259.112,1.139.881s-.819.885-1.424.885h-.175Zm1.387,2.77a2.319,2.319,0,0,0,1.867-2c.241-1.513-.714-2.179-2.116-2.179h-2.756L619.26,309.5H621.1l.431-2.729h.022l1.3,2.729h2.3Z" transform="translate(-77.152 -40.351)" fill="#243366"/>
    <path id="Trazado_19" data-name="Trazado 19" d="M634.406,303.965h1.526l.246-1.559h-4.891l-.246,1.559h1.524l-.876,5.532h1.838Z" transform="translate(-81.62 -40.351)" fill="#243366"/>
    <path id="Trazado_20" data-name="Trazado 20" d="M644.441,303.965l.243-1.559h-4.032l-1.126,7.091h4.038l.247-1.562h-2.193l.192-1.222h2.083l.246-1.563h-2.082l.189-1.186Z" transform="translate(-84.838 -40.351)" fill="#243366"/>
    <path id="Trazado_21" data-name="Trazado 21" d="M617.15,205.154l1.239-1.993h1.755l-2.134,1.993Zm-1.483,9.1,1.313-8.285h2.258l-1.313,8.285Z" transform="translate(-75.789 -2.71)" fill="#243366"/>
    <path id="Trazado_22" data-name="Trazado 22" d="M507.627,215.992l1.316-8.338h4.818l-.3,1.914h-2.592l-.222,1.372h2.426l-.29,1.8h-2.415l-.512,3.252Z" transform="translate(-34.812 -4.414)" fill="#243366"/>
    <path id="Trazado_23" data-name="Trazado 23" d="M522.735,214.135h2.58l-.29,1.857h-4.808l1.316-8.338h4.807l-.3,1.925h-2.58l-.21,1.361h2.392l-.279,1.811h-2.4Z" transform="translate(-39.587 -4.414)" fill="#243366"/>
    <path id="Trazado_24" data-name="Trazado 24" d="M535.809,211.463h.7a1.519,1.519,0,0,0,1.014-.3,1.083,1.083,0,0,0,.353-.871.9.9,0,0,0-.33-.777,1.818,1.818,0,0,0-1.06-.242h-.33Zm-.712,4.528h-2.215l1.315-8.338h2.222a11.419,11.419,0,0,1,1.492.071,2.959,2.959,0,0,1,.849.243,2.131,2.131,0,0,1,.956.834,2.45,2.45,0,0,1,.325,1.29,2.519,2.519,0,0,1-.618,1.734,2.783,2.783,0,0,1-1.7.874l2.027,3.292h-2.54l-1.612-3.184Z" transform="translate(-44.39 -4.414)" fill="#243366"/>
    <path id="Trazado_25" data-name="Trazado 25" d="M550.675,211.463h.7a1.519,1.519,0,0,0,1.014-.3,1.083,1.083,0,0,0,.353-.871.9.9,0,0,0-.331-.777,1.814,1.814,0,0,0-1.059-.242h-.33Zm-.712,4.528h-2.215l1.315-8.338h2.222a11.411,11.411,0,0,1,1.492.071,2.959,2.959,0,0,1,.849.243,2.131,2.131,0,0,1,.956.834,2.449,2.449,0,0,1,.325,1.29,2.519,2.519,0,0,1-.618,1.734,2.783,2.783,0,0,1-1.7.874l2.028,3.292h-2.541l-1.612-3.184Z" transform="translate(-50.029 -4.414)" fill="#243366"/>
    <path id="Trazado_26" data-name="Trazado 26" d="M565.132,214.135h2.58l-.291,1.857h-4.807l1.316-8.338h4.807l-.3,1.925h-2.58l-.21,1.361h2.392l-.279,1.811h-2.4Z" transform="translate(-55.667 -4.414)" fill="#243366"/>
    <path id="Trazado_27" data-name="Trazado 27" d="M576.619,215.992l1.014-6.4h-1.868l.319-1.937h5.889l-.319,1.937h-1.783l-1.014,6.4Z" transform="translate(-60.655 -4.414)" fill="#243366"/>
    <path id="Trazado_28" data-name="Trazado 28" d="M590.478,214.135h2.58l-.29,1.857h-4.808l1.316-8.338h4.807l-.3,1.925H591.2l-.21,1.361h2.392l-.279,1.811h-2.4Z" transform="translate(-65.28 -4.414)" fill="#243366"/>
    <path id="Trazado_29" data-name="Trazado 29" d="M603.553,211.463h.7a1.519,1.519,0,0,0,1.014-.3,1.084,1.084,0,0,0,.353-.871.9.9,0,0,0-.33-.777,1.818,1.818,0,0,0-1.06-.242h-.33Zm-.712,4.528h-2.215l1.315-8.338h2.222a11.414,11.414,0,0,1,1.492.071,2.961,2.961,0,0,1,.849.243,2.131,2.131,0,0,1,.956.834,2.45,2.45,0,0,1,.325,1.29,2.519,2.519,0,0,1-.618,1.734,2.783,2.783,0,0,1-1.7.874l2.028,3.292h-2.541l-1.612-3.184Z" transform="translate(-70.084 -4.414)" fill="#243366"/>
    <path id="Trazado_30" data-name="Trazado 30" d="M627.179,212.562h1.76l-.382-1.948q-.057-.29-.086-.518c-.019-.151-.03-.294-.034-.427q-.119.342-.219.6c-.066.173-.119.3-.157.384Zm-4.061,3.429,4.175-8.338h2.791l1.771,8.338h-2.261l-.336-1.572h-2.916l-.8,1.572Z" transform="translate(-78.615 -4.414)" fill="#243366"/>
    <path id="Trazado_31" data-name="Trazado 31" d="M671.451,286.435a3.819,3.819,0,1,1,7.638,0,3.738,3.738,0,0,1-1.1,2.739,3.644,3.644,0,0,1-2.691,1.109,3.867,3.867,0,0,1-3.847-3.847" transform="translate(-96.946 -32.849)" fill="#cc3b30"/>
    <path id="Trazado_32" data-name="Trazado 32" d="M706.465,269.558a7.864,7.864,0,0,0-2.113-1.667,4.857,4.857,0,0,0-2.246-.55,4.248,4.248,0,0,0-3.335,1.545,5.605,5.605,0,0,0-1.346,3.819,4.208,4.208,0,0,0,1.042,3,3.691,3.691,0,0,0,2.824,1.108,6.141,6.141,0,0,0,2.189-.4,8.356,8.356,0,0,0,2.094-1.194l-1.023,6.292a16.951,16.951,0,0,1-2.606.7,13.932,13.932,0,0,1-2.474.227,8.672,8.672,0,0,1-6.567-2.625,9.5,9.5,0,0,1-2.511-6.851,10.8,10.8,0,0,1,3.109-8.027,11.077,11.077,0,0,1,8.15-3.08,10.065,10.065,0,0,1,3.07.465,8.945,8.945,0,0,1,2.672,1.374Z" transform="translate(-104.131 -24.975)" fill="#cc3b30"/>
    <path id="Trazado_33" data-name="Trazado 33" d="M724.226,247.478h6.8l-4.7,29.376h-6.785Z" transform="translate(-115.187 -19.519)" fill="#cc3b30"/>
    <path id="Trazado_34" data-name="Trazado 34" d="M700.552,305.128a2.459,2.459,0,0,1-1.468,1.328,6.97,6.97,0,0,1-2.364.516,8.854,8.854,0,0,1-2.187-.137,21.861,21.861,0,0,1-2.2-.505l1.087-2.141a5.141,5.141,0,0,0,2.61.791,2.132,2.132,0,0,0,.748-.168s.361-.369-.126-.517a2.48,2.48,0,0,0-.961-.148,5.922,5.922,0,0,1-2.186-.644,1.664,1.664,0,0,1-.814-1.433s-.106-1.624,2.017-2.31a7.081,7.081,0,0,1,2.915-.39,8.03,8.03,0,0,1,2.755.623l-1.044,1.95a6.411,6.411,0,0,0-1.734-.559c-.072,0-1.138-.075-1.16.305,0,0-.159.317.391.358a12.033,12.033,0,0,1,2.027.349,3.186,3.186,0,0,1,1.585.939,1.762,1.762,0,0,1,.1,1.793m-10.225,1.809h-3.8v-4.979h-2.06v-2.447h7.917v2.447h-2.061Zm-8.623,0-.551-4.108-1.674,4.108h-2.223l-1.626-4.083-.548,4.083h-3.7l1.648-7.426h3.926l1.4,3.868,1.475-3.868h3.748l1.775,7.426Zm-26.554,1.025h46.865v-9.6H655.149Z" transform="translate(-90.763 -38.816)" fill="#cc3b30"/>
  </g>
</svg>
